# xmcd
#
# Track frame offsets: 
#        150
#        12193
#        25251
#        36059
#        48959
#        61916
#        74272
#        83069
#        96330
#        108080
#        121568
#        132966
#        146128
#        157378
#        168910
#        181237
#        189901
#        202796
#
# Disc length: 2851 seconds
#
# Revision: 2
# Processed by: cddbd v1.5.2PL0 Copyright (c) Steve Scherf et al.
# Submitted via: ExactAudioCopyFreeDBPlugin 1.0
#
DISCID=e60b2112
DTITLE=Various Artist - Kings of Western Swing - Volume 2 
DYEAR=2004
DGENRE=Western Swing
TTITLE0=Hank Penny - Flamin' Mamie
TTITLE1=Merle Lindsay and His Oklahoma Night Riders - Gotta Little Red W
TTITLE1=agon
TTITLE2=Adolph Horner and His Texans - Am I Happy
TTITLE3=Billy Boyd and His Cowboy Ramblers - Road Side Rag
TTITLE4=Charlie Linville and Fiddlin' Linvilles - Texahoma Boogie
TTITLE5=Prairie Ramblers - Double Crossing Mama
TTITLE6=Johnny Tyler's Riders of the Rio Grande - I Can't Trust You No
TTITLE6=w
TTITLE7=Tex Russell and His Hollywood Cowboys - What It Means To Be Blue
TTITLE8=Ted Daffan'sTexans - Down Hi Lo Way
TTITLE9=Adolph Hofner - Swing with the Music
TTITLE10=The Rambling Rogue  feat Fred Rose  - Tender Hearted Sue
TTITLE11=T. Texas Tyler - Gals Don't Mean a Thing
TTITLE12=Bill Boyd and His Texas Ramblers - New Steel Guitar Rag
TTITLE13=Hank Penny - Talkin' 'Bout You
TTITLE14=Tex Atchinson - You Don't Do Right By Me Anymore
TTITLE15=Billy Hughes and His Pals of the Pecos - I'm Tellin You
TTITLE16=Ted Daffan's Texans - Look Who's Talkin'
TTITLE17=Bill Nettles and His Dixie Blue Boys - She Selling What She Use
TTITLE17=d to Give Away
EXTD=YEAR: 2004
EXTT0=
EXTT1=
EXTT2=
EXTT3=
EXTT4=
EXTT5=
EXTT6=
EXTT7=
EXTT8=
EXTT9=
EXTT10=
EXTT11=
EXTT12=
EXTT13=
EXTT14=
EXTT15=
EXTT16=
EXTT17=
PLAYORDER=
